# xmcd
#
# Track frame offsets:
#	150
#	20897
#	44126
#	59628
#	79923
#	99005
#	118905
#	134630
#	148707
#	166117
#	183040
#	207833
#	225213
#	243720
#	265259
#	296379
#
# Disc length: 4179
#
# Revision: 2
# Processed by: cddbd v1.5.1PL0 Copyright (c) Steve Scherf et al.
# Submitted via: CDex 1.51
# Normalized: r1:DSETVAR1,TDELIM( - )
#
DISCID=ea105110
DTITLE=Various Artist - 100% Salsa Explosiva
DYEAR=2003
DGENRE=Salsa
TTITLE0=Celia Cruz - La Vida es un Carneval
TTITLE1=Eduardo y su Conjunto - La Collegiala
TTITLE2=Roberto Nodarse - El Jardinero del Amor
TTITLE3=Sonora Matncera - Besito de Coco
TTITLE4=Grupo Galé - Las Chicas de la Equina
TTITLE5=Sonora Carruseles - Que suene mi Campana
TTITLE6=Celina Gonzales - Santa Barbara (Que viva Chango)
TTITLE7=Luis Felipe Gonzales - Pensando en ti
TTITLE8=Issac Delgado - La Sandunguita
TTITLE9=Sonora Majestad - La Negra Tomasa
TTITLE10=Celina Gonzales y Reutilio jr. - Poupourri Celina
TTITLE11=Oscar D'Leon - Me voy pa'Cali
TTITLE12=Fruko - La Charanga Cmpesina
TTITLE13=Josè Alberto - El A sde la Rumba
TTITLE14=Celia Cruz y Oscar D'Leon - El Son de Celina y Oscar
TTITLE15=Sonora Carrusseles - Federico Boogaloo
EXTD=YEAR: 2003
EXTT0=
EXTT1=
EXTT2=
EXTT3=
EXTT4=
EXTT5=
EXTT6=
EXTT7=
EXTT8=
EXTT9=
EXTT10=
EXTT11=
EXTT12=
EXTT13=
EXTT14=
EXTT15=
PLAYORDER=
